<svg width="418" height="113" viewBox="0 0 418 113" fill="none" xmlns="http://www.w3.org/2000/svg">
<path d="M208.809 68.6699H238.479V78.4999H220.499V88.6499H236.359V98.4799H220.499V112.35H208.809V68.6799V68.6699Z" fill="#073940"/>
<path d="M244.52 68.6699H256.21V112.34H244.52V68.6699Z" fill="#073940"/>
<path d="M263.21 68.6699H276.25L282.74 79.7199L289.29 68.6699H301.43L288.78 88.3899L303.81 112.35H290.77L281.97 97.5799L272.98 112.35H260.84L275.93 88.9099L263.21 68.6799V68.6699Z" fill="#073940"/>
<path d="M134.69 56.5699H123V12.8999H139.57C151.32 12.8999 157.94 20.3499 157.94 30.0499C157.94 39.7499 151.32 47.1299 139.57 47.1299H134.69V56.5699ZM138.99 37.2399C144.26 37.2399 146.18 34.2899 146.18 30.0499C146.18 25.8099 144.25 22.7899 138.99 22.7899H134.69V37.2399H138.99Z" fill="#073940"/>
<path d="M163.34 12.8999H175.03V46.7499H193.59V56.5799H163.34V12.9099V12.8999Z" fill="#073940"/>
<path d="M207.52 56.57H196.09L217.35 12.12C217.54 11.67 217.93 11.67 218.12 12.12L239.32 56.57H227.25L225.58 52.84H209.14L207.53 56.57H207.52ZM217.22 33.96L212.85 44.11H221.71L217.21 33.96H217.22Z" fill="#073940"/>
<path d="M246.191 22.7199H234.631V12.8899H269.441V22.7199H257.881V56.5699H246.191V22.7199Z" fill="#073940"/>
<path d="M284.599 22.7199H273.039V12.8899H307.849V22.7199H296.289V56.5699H284.599V22.7199Z" fill="#073940"/>
<path d="M313.119 12.8999H343.759V22.7299H324.809V30.5199H340.609V39.8299H324.809V46.7399H344.659V56.5699H313.119V12.8999Z" fill="#073940"/>
<path d="M361.289 34.8V56.57H350.309V12.32C350.309 11.93 350.499 11.61 351.209 12.19L378.639 34.8V12.9H389.619V57.22C389.619 57.73 389.429 57.93 388.719 57.35L361.289 34.81V34.8Z" fill="#073940"/>
<path d="M409.21 16.78C413.844 16.78 417.6 13.0237 417.6 8.39C417.6 3.75633 413.844 0 409.21 0C404.577 0 400.82 3.75633 400.82 8.39C400.82 13.0237 404.577 16.78 409.21 16.78Z" fill="#073940"/>
<path d="M411.88 9.89996L411.95 11.05C411.983 11.45 412.07 11.7533 412.21 11.96H411.34C411.193 11.7466 411.117 11.43 411.11 11.01L411.08 10.25C411.06 9.76996 410.953 9.42996 410.76 9.22996C410.567 9.02329 410.25 8.91996 409.81 8.91996H407.49V11.96H406.65V4.83996H409.66C410.393 4.83996 410.977 5.00996 411.41 5.34996C411.85 5.68996 412.07 6.16663 412.07 6.77996C412.07 7.21329 411.963 7.57996 411.75 7.87996C411.543 8.17329 411.26 8.37996 410.9 8.49996C411.5 8.68663 411.827 9.15329 411.88 9.89996ZM407.49 8.15996H409.76C410.207 8.15996 410.557 8.04663 410.81 7.81996C411.07 7.58663 411.2 7.25663 411.2 6.82996C411.2 6.42329 411.063 6.11663 410.79 5.90996C410.523 5.70329 410.147 5.59996 409.66 5.59996H407.49V8.15996Z" fill="white"/>
<path d="M45 12.96C20.9746 14.7977 1.79782 34.4006 0 58.96H45V12.96Z" fill="#073940"/>
<path d="M0 65.96C1.79782 90.5193 20.9746 110.122 45 111.96V65.96H0Z" fill="#073940"/>
<path d="M53 111.96C77.0254 110.122 96.2022 90.5193 98 65.96H53V111.96Z" fill="#073940"/>
<path d="M98 12.96H53V58.96H98V12.96Z" fill="#0C96D4"/>
</svg>
