<svg width="35" height="34" viewBox="0 0 35 34" fill="none" xmlns="http://www.w3.org/2000/svg">
<path d="M24.9695 12.198C25.0414 12.198 25.1134 12.198 25.1854 12.198C24.4299 7.01751 20.1488 2.95229 14.8604 2.52058C14.3567 2.48461 13.8891 2.88034 13.8891 3.38399V12.9894C13.8891 13.4931 13.4933 13.8888 13.0257 13.8888H3.38424C2.88058 13.8888 2.48485 14.3565 2.52083 14.8602C2.98851 20.5443 7.62934 25.0412 13.3854 25.293C13.3135 24.8254 13.3135 24.3577 13.3135 23.89C13.2775 17.4144 18.4939 12.198 24.9695 12.198Z" fill="#196061"/>
<path d="M11.3705 10.5071V0.901656C11.3705 0.362024 10.9028 -0.0337057 10.3992 0.00226973C4.89493 0.46995 0.46995 4.89493 0.00226973 10.3992C-0.0337057 10.9388 0.362024 11.3705 0.901656 11.3705H10.5071C10.9748 11.3705 11.3705 10.9748 11.3705 10.5071Z" fill="#196061"/>
<path d="M24.9687 14.6443C19.8602 14.6443 15.759 18.7815 15.759 23.854C15.723 28.9625 19.8602 33.0997 24.9687 33.0997C30.0413 33.0997 34.1784 28.9625 34.1784 23.854C34.1784 18.7815 30.0413 14.6443 24.9687 14.6443ZM25.8681 28.4229V29.4302C25.8681 29.646 25.6882 29.7899 25.5084 29.7899H24.4291C24.2133 29.7899 24.0693 29.6101 24.0693 29.4302V28.4589C22.9541 28.315 22.0547 27.4156 21.9468 26.3003C21.9468 26.1924 21.9828 26.1205 22.0547 26.0125C22.1267 25.9406 22.2346 25.9046 22.3425 25.9046H23.4578C23.6376 25.9046 23.7815 26.0125 23.8175 26.1924C23.8895 26.4802 24.1413 26.6601 24.4291 26.6601H25.4004C25.9041 26.6601 26.3718 26.3003 26.4078 25.8326C26.4437 25.5448 26.3358 25.293 26.1559 25.1131C25.976 24.8973 25.7242 24.7894 25.4724 24.7894H24.7529C23.2779 24.7894 22.0187 23.7101 21.8748 22.3071C21.7309 20.868 22.7023 19.5729 24.1413 19.3211V18.3498C24.1413 18.1339 24.3212 17.99 24.5011 17.99H25.5803C25.7962 17.99 25.9401 18.1699 25.9401 18.3498V19.3211C27.0553 19.465 27.9547 20.3644 28.0626 21.4796C28.0626 21.5875 28.0266 21.6595 27.9907 21.7674C27.9187 21.8394 27.8108 21.8754 27.7029 21.8754H26.5876C26.4078 21.8754 26.2638 21.7674 26.2279 21.5875C26.1559 21.2997 25.9041 21.1199 25.6163 21.1199H24.645C24.1413 21.1199 23.6736 21.4796 23.6376 21.9833C23.6017 22.2711 23.7096 22.5229 23.8895 22.7028C24.0693 22.9186 24.3212 23.0266 24.609 23.0266H25.3645C26.1559 23.0266 26.8754 23.3503 27.4151 23.9259C27.9547 24.5016 28.2065 25.257 28.1346 26.0485C28.0266 27.1997 27.0913 28.1711 25.8681 28.4229Z" fill="#196061"/>
</svg>
