<svg width="34" height="34" viewBox="0 0 34 34" fill="none" xmlns="http://www.w3.org/2000/svg">
<path d="M11.3548 4.78125H16V2.65625C16 1.19 14.8439 0 13.4194 0C12.7845 0 12.1806 0.239062 11.7161 0.65875C11.4323 0.57375 11.1381 0.53125 10.8387 0.53125C9.50194 0.53125 8.34581 1.4025 7.91742 2.66156C7.86064 2.65625 7.80387 2.65625 7.74194 2.65625C6.48258 2.65625 5.42968 3.59125 5.20258 4.82375C5.19226 4.82375 5.17677 4.82906 5.16645 4.83438C5.18194 5.08938 5.32645 6.04563 6.35871 6.40156C6.6271 6.49719 6.77161 6.79469 6.68387 7.07625C6.61161 7.29938 6.41032 7.4375 6.19355 7.4375C6.14194 7.4375 6.08516 7.42688 6.02839 7.41094C4.82581 6.99656 4.33548 6.00313 4.18581 5.27C3.52516 5.75344 3.09677 6.545 3.09677 7.4375C3.09677 7.6075 3.11226 7.77219 3.14323 7.93687C2.62194 8.31406 2.26064 8.87187 2.12645 9.52C1.57419 9.91844 1.19742 10.5241 1.08387 11.2041C1.88903 10.8109 3.17419 10.5081 4.83613 11.1934C5.09935 11.305 5.22839 11.6131 5.12516 11.8841C5.01677 12.155 4.71742 12.2878 4.45419 12.1816C2.24 11.2678 0.934194 12.5428 0.877419 12.5959C0.84129 12.6331 0.805161 12.6597 0.763871 12.6809C0.59871 13.0369 0.516129 13.4194 0.516129 13.8125C0.516129 13.9719 0.531613 14.1312 0.557419 14.2906C0.196129 14.7581 0 15.3372 0 15.9375C0 16.405 0.123871 16.8619 0.345806 17.2656C0.123871 17.6694 0 18.1262 0 18.5938C0 18.8913 0.0464516 19.1834 0.139355 19.4597C0.655484 18.8328 1.57419 18.2644 2.79226 18.8328C3.05548 18.9497 3.16903 19.2684 3.05032 19.5341C2.93161 19.7997 2.6271 19.9219 2.36903 19.7997C1.30581 19.3056 0.769032 20.3522 0.712258 20.4744C0.68129 20.5381 0.64 20.5966 0.588387 20.6338C0.541935 20.8356 0.516129 21.0428 0.516129 21.25C0.516129 21.8503 0.712258 22.4294 1.07355 22.8969C1.04774 23.0562 1.03226 23.2156 1.03226 23.375C1.03226 24.2356 1.44516 25.0378 2.11097 25.5319C2.08 25.6912 2.06452 25.8612 2.06452 26.0312C2.06452 27.1681 2.75097 28.1562 3.76774 28.5334C4.01032 29.2294 4.52129 29.7819 5.18194 30.0687C5.31097 31.1791 6.11097 32.0981 7.18452 32.3425C7.66452 33.0438 8.44903 33.4688 9.29032 33.4688H9.29548C10.0955 34.0903 11.2516 34.1647 12.129 33.6441C12.5213 33.8725 12.9652 34 13.4194 34C14.8439 34 16 32.81 16 31.3438V19.6562H11.3548C10.7871 19.6562 10.3226 20.1344 10.3226 20.7188C10.3226 21.0109 10.0903 21.25 9.80645 21.25C9.52258 21.25 9.29032 21.0109 9.29032 20.7188C9.29032 19.5447 10.2142 18.5938 11.3548 18.5938H16V17.5312H5.67742C4.2529 17.5312 3.09677 16.3412 3.09677 14.875C3.09677 14.5828 3.32903 14.3438 3.6129 14.3438C3.89677 14.3438 4.12903 14.5828 4.12903 14.875C4.12903 15.7516 4.82581 16.4688 5.67742 16.4688H16V5.84375H11.3548C10.7871 5.84375 10.3226 6.32188 10.3226 6.90625C10.3226 7.19844 10.0903 7.4375 9.80645 7.4375C9.52258 7.4375 9.29032 7.19844 9.29032 6.90625C9.29032 5.73219 10.2142 4.78125 11.3548 4.78125ZM8.77419 29.75C8.49032 29.75 8.25806 29.5109 8.25806 29.2188C8.25806 28.9266 8.49032 28.6875 8.77419 28.6875C9.62581 28.6875 10.3226 27.9703 10.3226 27.0938C10.3226 26.8016 10.5548 26.5625 10.8387 26.5625C11.1226 26.5625 11.3548 26.8016 11.3548 27.0938C11.3548 28.56 10.1987 29.75 8.77419 29.75ZM13.4194 29.2188C13.4194 29.5109 13.1871 29.75 12.9032 29.75C12.6194 29.75 12.3871 29.9891 12.3871 30.2812C12.3871 30.5734 12.1548 30.8125 11.871 30.8125C11.5871 30.8125 11.3548 30.5734 11.3548 30.2812C11.3548 29.4047 12.0516 28.6875 12.9032 28.6875C13.1871 28.6875 13.4194 28.9266 13.4194 29.2188ZM8.62452 23.63C9.2129 23.0297 9.9871 22.695 10.8181 22.695C11.649 22.695 12.4232 23.0297 13.0065 23.63C13.2077 23.8372 13.2077 24.1719 13.0065 24.3791C12.8052 24.5863 12.4748 24.5863 12.2735 24.3791C11.4942 23.5769 10.1368 23.5769 9.35742 24.3791C8.94452 24.8041 8.72258 25.3937 8.75355 25.9941C8.76903 26.2863 8.55226 26.5359 8.26323 26.5519H8.23742C7.96387 26.5519 7.73677 26.3341 7.72129 26.0472C7.68 25.1494 8.00516 24.2675 8.62452 23.63ZM6.04387 26.095C5.94065 26.2013 5.81161 26.2491 5.67742 26.2491C5.54323 26.2491 5.41419 26.2013 5.31097 26.095C5.10968 25.8878 5.10968 25.5531 5.31097 25.3459C5.40903 25.245 5.46581 25.1122 5.46581 24.9688C5.46581 24.8253 5.40903 24.6925 5.31097 24.5916C5.10968 24.3844 5.10968 24.0497 5.31097 23.8425C5.51226 23.6353 5.84258 23.6353 6.04387 23.8425C6.3329 24.1453 6.49806 24.5438 6.49806 24.9688C6.49806 25.3937 6.3329 25.7922 6.04387 26.095ZM4.64516 21.25C5.49677 21.25 6.19355 20.5328 6.19355 19.6562C6.19355 19.3641 6.42581 19.125 6.70968 19.125C6.99355 19.125 7.22581 19.3641 7.22581 19.6562C7.22581 21.1225 6.06968 22.3125 4.64516 22.3125C4.36129 22.3125 4.12903 22.0734 4.12903 21.7812C4.12903 21.4891 4.36129 21.25 4.64516 21.25ZM6.70968 14.875C6.42581 14.875 6.19355 14.6359 6.19355 14.3438C6.19355 14.0516 6.42581 13.8125 6.70968 13.8125C7.56129 13.8125 8.25806 13.0953 8.25806 12.2188C8.25806 11.9266 8.49032 11.6875 8.77419 11.6875C9.05806 11.6875 9.29032 11.9266 9.29032 12.2188C9.29032 13.685 8.13419 14.875 6.70968 14.875ZM13.9355 13.8125C13.9355 14.1047 13.7032 14.3438 13.4194 14.3438C13.1355 14.3438 12.9032 14.5828 12.9032 14.875C12.9032 15.1672 12.671 15.4062 12.3871 15.4062C12.1032 15.4062 11.871 15.1672 11.871 14.875C11.871 13.9984 12.5677 13.2812 13.4194 13.2812C13.7032 13.2812 13.9355 13.5203 13.9355 13.8125ZM12.9032 7.4375C13.1871 7.4375 13.4194 7.67656 13.4194 7.96875C13.4194 8.26094 13.1871 8.5 12.9032 8.5C12.6194 8.5 12.3871 8.73906 12.3871 9.03125C12.3871 9.32344 12.1548 9.5625 11.871 9.5625C11.5871 9.5625 11.3548 9.32344 11.3548 9.03125C11.3548 8.15469 12.0516 7.4375 12.9032 7.4375ZM11.871 12.2188C11.871 12.5109 11.6387 12.75 11.3548 12.75C11.071 12.75 10.8387 12.5109 10.8387 12.2188C10.8387 11.0447 9.91484 10.0938 8.77419 10.0938C8.19097 10.0938 7.63355 10.3488 7.24129 10.795C7.05032 11.0128 6.72516 11.0287 6.51355 10.8375C6.30194 10.6356 6.28129 10.3009 6.47226 10.0831C7.06065 9.41375 7.89677 9.03125 8.77419 9.03125C10.4826 9.03125 11.871 10.4603 11.871 12.2188Z" fill="#196061"/>
<path d="M26.6875 7C25.7594 7 25 7.77143 25 8.71429C25 9.65714 25.7594 10.4286 26.6875 10.4286C27.4188 10.4286 28.0375 9.94857 28.2737 9.28571H29.7194L31.1031 12.0971C30.8106 12.4057 30.625 12.8229 30.625 13.2857C30.625 14.2286 31.3844 15 32.3125 15C33.2406 15 34 14.2286 34 13.2857C34 12.3429 33.2406 11.5714 32.3125 11.5714C32.245 11.5714 32.1775 11.5829 32.11 11.5943L30.5631 8.46286C30.4675 8.26857 30.2706 8.14857 30.0625 8.14857H28.2737C28.0431 7.48571 27.4244 7.00571 26.6875 7.00571V7ZM32.875 13.2857C32.875 13.6 32.6219 13.8571 32.3125 13.8571C32.0031 13.8571 31.75 13.6 31.75 13.2857C31.75 12.9714 32.0031 12.7143 32.3125 12.7143C32.6219 12.7143 32.875 12.9714 32.875 13.2857ZM26.6875 9.28571C26.3781 9.28571 26.125 9.02857 26.125 8.71429C26.125 8.4 26.3781 8.14286 26.6875 8.14286C26.9969 8.14286 27.25 8.4 27.25 8.71429C27.25 9.02857 26.9969 9.28571 26.6875 9.28571Z" fill="#196061"/>
<path d="M19.5043 11.4286C20.154 11.4286 20.7038 10.9486 20.9137 10.2857H23.2976L26.1513 13.5486C26.0563 13.7714 26.0014 14.0171 26.0014 14.2857C26.0014 15.2286 26.6761 16 27.5007 16C28.3253 16 29 15.2286 29 14.2857C29 13.3429 28.3253 12.5714 27.5007 12.5714C27.2708 12.5714 27.0559 12.6343 26.856 12.7429L23.8523 9.30857C23.7574 9.2 23.6324 9.14286 23.4975 9.14286H20.9087C20.7038 8.48 20.154 8 19.4993 8C18.6747 8 18 8.77143 18 9.71429C18 10.6571 18.6747 11.4286 19.4993 11.4286H19.5043ZM28.0005 14.2857C28.0005 14.6 27.7756 14.8571 27.5007 14.8571C27.2258 14.8571 27.0009 14.6 27.0009 14.2857C27.0009 14.1314 27.0559 13.9886 27.1458 13.8857C27.1458 13.8857 27.1458 13.8857 27.1508 13.8857C27.1558 13.8857 27.1508 13.8857 27.1508 13.88C27.2408 13.7771 27.3607 13.7143 27.5007 13.7143C27.7756 13.7143 28.0005 13.9714 28.0005 14.2857ZM19.5043 9.14286C19.7792 9.14286 20.0041 9.4 20.0041 9.71429C20.0041 10.0286 19.7792 10.2857 19.5043 10.2857C19.2294 10.2857 19.0045 10.0286 19.0045 9.71429C19.0045 9.4 19.2294 9.14286 19.5043 9.14286Z" fill="#196061"/>
<path d="M26.3333 24C25.6111 24 25 24.504 24.7667 25.2H22.4444C22.1389 25.2 21.8889 25.47 21.8889 25.8V28.8H18.5556C18.25 28.8 18 29.07 18 29.4C18 29.73 18.25 30 18.5556 30H22.4444C22.75 30 23 29.73 23 29.4V26.4H24.7667C24.9944 27.096 25.6056 27.6 26.3333 27.6C27.25 27.6 28 26.79 28 25.8C28 24.81 27.25 24 26.3333 24ZM26.3333 26.4C26.0278 26.4 25.7778 26.13 25.7778 25.8C25.7778 25.47 26.0278 25.2 26.3333 25.2C26.6389 25.2 26.8889 25.47 26.8889 25.8C26.8889 26.13 26.6389 26.4 26.3333 26.4Z" fill="#196061"/>
<path d="M30.9953 26.6749V24.8581C30.9953 24.7038 30.9403 24.561 30.8504 24.4524L28.851 22.1671C28.656 21.9443 28.3411 21.9443 28.1462 22.1671C27.9513 22.3899 27.9513 22.7499 28.1462 22.9727L30.0006 25.0923V26.6749C29.4208 26.9091 29.0009 27.5376 29.0009 28.286C29.0009 29.2287 29.6757 30 30.5005 30C31.3252 30 32 29.2287 32 28.286C32 27.5433 31.5801 26.9148 31.0003 26.6749H30.9953ZM30.4955 28.8573C30.2206 28.8573 29.9956 28.6002 29.9956 28.286C29.9956 27.9718 30.2206 27.7147 30.4955 27.7147C30.7704 27.7147 30.9953 27.9718 30.9953 28.286C30.9953 28.6002 30.7704 28.8573 30.4955 28.8573Z" fill="#196061"/>
<path d="M33 19.09V16.5C33 16.225 32.775 16 32.5 16C32.225 16 32 16.225 32 16.5V19.09C31.42 19.295 31 19.845 31 20.5C31 21.325 31.675 22 32.5 22C33.325 22 34 21.325 34 20.5C34 19.85 33.58 19.3 33 19.09ZM32.5 21C32.225 21 32 20.775 32 20.5C32 20.225 32.225 20 32.5 20C32.775 20 33 20.225 33 20.5C33 20.775 32.775 21 32.5 21Z" fill="#196061"/>
<path d="M19.5997 20.9944C20.293 20.9944 20.8795 20.5279 21.1035 19.8836H22.7992C22.9432 19.8836 23.0765 19.8226 23.1778 19.7226L25.844 16.9456C26.052 16.729 26.052 16.3791 25.844 16.1625C25.6361 15.9458 25.3001 15.9458 25.0922 16.1625L22.5806 18.7784H21.1035C20.8849 18.1341 20.2983 17.6676 19.5997 17.6676C18.7199 17.6676 18 18.4174 18 19.3338C18 20.2502 18.7199 21 19.5997 21V20.9944ZM19.5997 18.7728C19.893 18.7728 20.133 19.0228 20.133 19.3282C20.133 19.6337 19.893 19.8836 19.5997 19.8836C19.3064 19.8836 19.0665 19.6337 19.0665 19.3282C19.0665 19.0228 19.3064 18.7728 19.5997 18.7728Z" fill="#196061"/>
<path d="M19.56 28C20.4209 28 21.1252 27.2575 21.1252 26.35C21.1252 25.635 20.687 25.03 20.0817 24.799V23.6H24.2557C24.3965 23.6 24.527 23.5395 24.6261 23.4405L27.7617 20.135C27.9652 20.2395 28.1896 20.3 28.4348 20.3C29.2957 20.3 30 19.5575 30 18.65C30 17.7425 29.2957 17 28.4348 17C27.5739 17 26.8696 17.7425 26.8696 18.65C26.8696 18.903 26.927 19.1395 27.0261 19.3595L24.047 22.5H19.5652C19.2783 22.5 19.0435 22.7475 19.0435 23.05V24.799C18.4383 25.0245 18 25.6295 18 26.35C18 27.2575 18.7043 28 19.5652 28H19.56ZM28.4296 18.1C28.7165 18.1 28.9513 18.3475 28.9513 18.65C28.9513 18.9525 28.7165 19.2 28.4296 19.2C28.2887 19.2 28.1583 19.1395 28.0643 19.0405C28.0643 19.0405 28.0643 19.0405 28.0643 19.035C28.0643 19.0295 28.0643 19.035 28.0591 19.035C27.9652 18.936 27.9078 18.804 27.9078 18.65C27.9078 18.3475 28.1426 18.1 28.4296 18.1ZM19.56 25.8C19.847 25.8 20.0817 26.0475 20.0817 26.35C20.0817 26.6525 19.847 26.9 19.56 26.9C19.273 26.9 19.0383 26.6525 19.0383 26.35C19.0383 26.0475 19.273 25.8 19.56 25.8Z" fill="#196061"/>
<path d="M18.4444 5H20.6667C20.9111 5 21.1111 4.775 21.1111 4.5V2.91C21.6267 2.705 22 2.155 22 1.5C22 0.675 21.4 0 20.6667 0C19.9333 0 19.3333 0.675 19.3333 1.5C19.3333 2.15 19.7067 2.7 20.2222 2.91V4H18.4444C18.2 4 18 4.225 18 4.5C18 4.775 18.2 5 18.4444 5ZM20.6667 1C20.9111 1 21.1111 1.225 21.1111 1.5C21.1111 1.775 20.9111 2 20.6667 2C20.4222 2 20.2222 1.775 20.2222 1.5C20.2222 1.225 20.4222 1 20.6667 1Z" fill="#196061"/>
<path d="M18.5238 7H22.7143C22.8767 7 23.0338 6.925 23.1333 6.8L24.5476 5H25.9514C26.1662 5.58 26.7424 6 27.4286 6C28.2929 6 29 5.325 29 4.5C29 3.675 28.2929 3 27.4286 3C26.7476 3 26.1714 3.42 25.9514 4H24.2857C24.1233 4 23.9662 4.075 23.8667 4.2L22.4524 6H18.5238C18.2357 6 18 6.225 18 6.5C18 6.775 18.2357 7 18.5238 7ZM27.4286 4C27.7167 4 27.9524 4.225 27.9524 4.5C27.9524 4.775 27.7167 5 27.4286 5C27.1405 5 26.9048 4.775 26.9048 4.5C26.9048 4.225 27.1405 4 27.4286 4Z" fill="#196061"/>
<path d="M18.5 15H21.09C21.295 15.58 21.845 16 22.5 16C23.325 16 24 15.325 24 14.5C24 13.675 23.325 13 22.5 13C21.85 13 21.3 13.42 21.09 14H18.5C18.225 14 18 14.225 18 14.5C18 14.775 18.225 15 18.5 15ZM22.5 14C22.775 14 23 14.225 23 14.5C23 14.775 22.775 15 22.5 15C22.225 15 22 14.775 22 14.5C22 14.225 22.225 14 22.5 14Z" fill="#196061"/>
<path d="M26.0599 29.2161L24.1006 31.7801H21.0821C20.8649 31.1363 20.2824 30.6701 19.5887 30.6701C18.7149 30.6701 18 31.4194 18 32.3351C18 33.2508 18.7149 34 19.5887 34C20.2771 34 20.8596 33.5338 21.0821 32.89H24.3547C24.5136 32.89 24.6672 32.8123 24.7678 32.6792L26.8861 29.9043C27.0661 29.6656 27.029 29.316 26.8013 29.1218C26.5736 28.9275 26.24 28.9719 26.0546 29.2106L26.0599 29.2161ZM19.5887 32.89C19.2974 32.89 19.0591 32.6403 19.0591 32.3351C19.0591 32.0298 19.2974 31.7801 19.5887 31.7801C19.8799 31.7801 20.1182 32.0298 20.1182 32.3351C20.1182 32.6403 19.8799 32.89 19.5887 32.89Z" fill="#196061"/>
</svg>
