<svg width="23" height="16" viewBox="0 0 23 16" fill="none" xmlns="http://www.w3.org/2000/svg">
<path d="M9.99984 11.34C9.99984 8.61 8.24984 7.07 6.07984 7.07C5.23984 7.07 4.60984 7.28 4.11984 7.56C4.11984 5.32 6.07984 3.5 8.80984 2.94V0C3.90984 0.699999 0.339844 4.76 0.339844 9.87C0.339844 13.65 2.57984 15.96 5.37984 15.96C8.17984 15.96 9.99984 14 9.99984 11.34ZM22.5298 11.34C22.5298 8.61 20.7098 7.07 18.5398 7.07C17.7698 7.07 17.1398 7.21 16.6498 7.49C16.6498 5.32 18.6098 3.5 21.3398 2.94V0C16.4398 0.699999 12.7998 4.76 12.7998 9.87C12.7998 13.65 15.0398 15.96 17.9098 15.96C20.6398 15.96 22.5298 14 22.5298 11.34Z" fill="white"/>
</svg>
